<svg xmlns="http://www.w3.org/2000/svg" xmlns:xlink="http://www.w3.org/1999/xlink" width="432" zoomAndPan="magnify" viewBox="0 0 324 370.499989" height="494" preserveAspectRatio="xMidYMid meet" version="1.0"><defs><clipPath id="4d16374c43"><path d="M 0.21875 0 L 323.78125 0 L 323.78125 370 L 0.21875 370 Z M 0.21875 0 " clip-rule="nonzero"/></clipPath><clipPath id="927cdc674d"><path d="M 0.21875 0 L 323.78125 0 L 323.78125 92 L 0.21875 92 Z M 0.21875 0 " clip-rule="nonzero"/></clipPath></defs><g clip-path="url(#4d16374c43)"><path fill="#000000" d="M 0.21875 0 L 323.78125 0 L 323.78125 370 L 0.21875 370 Z M 0.21875 0 " fill-opacity="1" fill-rule="nonzero"/></g><g clip-path="url(#927cdc674d)"><path fill="#ffffff" d="M 312.222656 45.382812 L 231.332031 45.382812 L 231.332031 11.5625 C 231.332031 5.203125 226.132812 0 219.777344 0 L 104.222656 0 C 97.867188 0 92.667969 5.203125 92.667969 11.5625 L 92.667969 45.382812 L 11.777344 45.382812 C 5.421875 45.382812 0.222656 50.585938 0.222656 56.945312 L 0.222656 80.070312 C 0.222656 86.429688 5.421875 91.632812 11.777344 91.632812 L 312.222656 91.632812 C 318.578125 91.632812 323.777344 86.429688 323.777344 80.070312 L 323.777344 56.945312 C 323.777344 50.585938 318.578125 45.382812 312.222656 45.382812 Z M 312.222656 45.382812 " fill-opacity="1" fill-rule="nonzero"/></g><path fill="#ffffff" d="M 51.066406 359.882812 C 51.644531 365.664062 56.554688 370 62.621094 370 L 261.667969 370 C 267.445312 370 272.355469 365.664062 273.222656 359.882812 L 300.957031 115.914062 L 23.332031 115.914062 Z M 208.222656 322.304688 L 228.445312 160.71875 C 229.3125 154.359375 235.089844 150.023438 241.445312 150.601562 C 247.800781 151.46875 252.132812 157.25 251.554688 163.609375 L 231.332031 325.195312 C 230.464844 330.976562 225.554688 335.3125 219.777344 335.3125 C 219.199219 335.3125 218.910156 335.3125 218.332031 335.3125 C 211.976562 334.445312 207.644531 328.664062 208.222656 322.304688 Z M 150.445312 162.164062 C 150.445312 155.804688 155.644531 150.601562 162 150.601562 C 168.355469 150.601562 173.554688 155.804688 173.554688 162.164062 L 173.554688 323.75 C 173.554688 330.109375 168.355469 335.3125 162 335.3125 C 155.644531 335.3125 150.445312 330.109375 150.445312 323.75 Z M 82.554688 150.601562 C 88.910156 149.734375 94.6875 154.359375 95.554688 160.71875 L 115.777344 322.304688 C 116.644531 328.664062 112.023438 334.445312 105.667969 335.3125 C 105.089844 335.3125 104.800781 335.3125 104.222656 335.3125 C 98.445312 335.3125 93.535156 330.976562 92.667969 325.195312 L 72.445312 163.609375 C 71.867188 157.25 76.199219 151.46875 82.554688 150.601562 Z M 82.554688 150.601562 " fill-opacity="1" fill-rule="nonzero"/></svg>